<svg width="224" height="212" viewBox="0 0 224 212" fill="none" xmlns="http://www.w3.org/2000/svg">
<path d="M104.287 183.349C109.035 180.502 114.965 180.502 119.713 183.349L163.767 209.759C175.138 216.576 189.114 206.371 186.083 193.464L174.463 143.992C173.184 138.546 175.042 132.841 179.282 129.192L217.904 95.9597C227.983 87.2868 222.63 70.7591 209.38 69.6425L158.367 65.3437C152.833 64.8774 148.01 61.3917 145.83 56.2837L125.797 9.3329C120.612 -2.81778 103.388 -2.8178 98.2035 9.33289L78.1695 56.2837C75.9899 61.3917 71.1665 64.8774 65.6326 65.3437L14.6202 69.6425C1.37018 70.7591 -3.98315 87.2867 6.0961 95.9597L44.7176 129.192C48.958 132.841 50.8156 138.546 49.5366 143.992L37.9173 193.464C34.8859 206.371 48.8616 216.576 60.2326 209.759L104.287 183.349Z" fill="#FF7F50"/>
</svg>
