<svg width="224" height="212" viewBox="0 0 224 212" fill="none" xmlns="http://www.w3.org/2000/svg">
<path d="M218.011 95.9099C228.07 87.2385 222.73 70.7367 209.497 69.6034L158.347 65.2223C152.824 64.7492 148.012 61.2688 145.834 56.1715L125.804 9.301C120.614 -2.84325 103.397 -2.83859 98.2139 9.30849L78.1695 56.2837C75.9899 61.3917 71.1665 64.8774 65.6326 65.3438L14.6202 69.6425C1.37018 70.7591 -3.98315 87.2867 6.0961 95.9597L44.7176 129.192C48.958 132.841 50.8156 138.546 49.5366 143.992L37.9173 193.464C34.8859 206.371 48.8616 216.576 60.2326 209.759L104.287 183.349C109.035 180.502 114.965 180.502 119.713 183.349L163.825 209.794C175.188 216.606 189.156 206.42 186.145 193.519L174.579 143.972C173.31 138.537 175.165 132.846 179.392 129.201L218.011 95.9099ZM119.974 159.57C115.068 156.969 112 151.87 112 146.317V16.6316V26.8476C112 28.8244 112.391 30.7818 113.15 32.6071L131.248 76.13C133.396 81.2943 138.238 84.8349 143.811 85.3151L192.997 89.5537V89.5537C191.282 89.4059 189.584 89.9871 188.319 91.1548L154.876 122.028C151.116 125.5 149.385 130.648 150.285 135.686L153.696 154.792L157.87 178.174C158.04 179.129 156.809 179.665 156.226 178.889V178.889C156.145 178.781 156.04 178.692 155.921 178.628L119.974 159.57Z" fill="#FF7F50"/>
</svg>
