<svg width="808" height="808" viewBox="0 0 808 808" fill="none" xmlns="http://www.w3.org/2000/svg">
<g filter="url(#filter0_d_471_60)">
<rect x="4" width="800" height="800" rx="180" fill="#D9D9D9"/>
<path d="M496.105 174H249.158C226.521 174 208 192.491 208 215.091V502.727H249.158V215.091H496.105V174ZM557.842 256.182H331.474C308.837 256.182 290.316 274.673 290.316 297.273V584.909C290.316 607.509 308.837 626 331.474 626H557.842C580.479 626 599 607.509 599 584.909V297.273C599 274.673 580.479 256.182 557.842 256.182ZM557.842 584.909H331.474V297.273H557.842V584.909Z" fill="#323232"/>
</g>
<defs>
<filter id="filter0_d_471_60" x="0" y="0" width="808" height="808" filterUnits="userSpaceOnUse" color-interpolation-filters="sRGB">
<feFlood flood-opacity="0" result="BackgroundImageFix"/>
<feColorMatrix in="SourceAlpha" type="matrix" values="0 0 0 0 0 0 0 0 0 0 0 0 0 0 0 0 0 0 127 0" result="hardAlpha"/>
<feOffset dy="4"/>
<feGaussianBlur stdDeviation="2"/>
<feComposite in2="hardAlpha" operator="out"/>
<feColorMatrix type="matrix" values="0 0 0 0 0 0 0 0 0 0 0 0 0 0 0 0 0 0 0.25 0"/>
<feBlend mode="normal" in2="BackgroundImageFix" result="effect1_dropShadow_471_60"/>
<feBlend mode="normal" in="SourceGraphic" in2="effect1_dropShadow_471_60" result="shape"/>
</filter>
</defs>
</svg>
