<svg width="current" viewBox="0 0 42 40" fill="none" xmlns="http://www.w3.org/2000/svg">
<path d="M30.45 0.0722656C26.796 0.0722656 23.289 1.77799 21 4.47346C18.711 1.77799 15.204 0.0722656 11.55 0.0722656C5.082 0.0722656 0 5.16838 0 11.6543C0 19.6144 7.14 26.1004 17.955 35.9557L21 38.7143L24.045 35.9346C34.86 26.1004 42 19.6144 42 11.6543C42 5.16838 36.918 0.0722656 30.45 0.0722656ZM21.21 32.818L21 33.0286L20.79 32.818C10.794 23.7418 4.2 17.7402 4.2 11.6543C4.2 7.44268 7.35 4.28393 11.55 4.28393C14.784 4.28393 17.934 6.36871 19.047 9.2537H22.974C24.066 6.36871 27.216 4.28393 30.45 4.28393C34.65 4.28393 37.8 7.44268 37.8 11.6543C37.8 17.7402 31.206 23.7418 21.21 32.818Z" fill="white"/>
</svg>
