<svg width="current" viewBox="0 0 37 42" fill="none" xmlns="http://www.w3.org/2000/svg">
<path d="M30.8333 28.9799C29.2711 28.9799 27.8733 29.5974 26.8044 30.5648L12.1483 22.0231C12.2511 21.5497 12.3333 21.0763 12.3333 20.5823C12.3333 20.0884 12.2511 19.615 12.1483 19.1416L26.64 10.6822C27.75 11.7113 29.2094 12.3494 30.8333 12.3494C34.2456 12.3494 37 9.59137 37 6.1747C37 2.75803 34.2456 0 30.8333 0C27.4211 0 24.6667 2.75803 24.6667 6.1747C24.6667 6.66867 24.7489 7.14207 24.8517 7.61546L10.36 16.0748C9.25 15.0457 7.79056 14.4076 6.16667 14.4076C2.75444 14.4076 0 17.1657 0 20.5823C0 23.999 2.75444 26.757 6.16667 26.757C7.79056 26.757 9.25 26.119 10.36 25.0899L24.9956 33.6521C24.8928 34.0843 24.8311 34.5372 24.8311 34.99C24.8311 38.3037 27.5239 41 30.8333 41C34.1428 41 36.8356 38.3037 36.8356 34.99C36.8356 31.6762 34.1428 28.9799 30.8333 28.9799Z" fill="white"/>
</svg>
